<?xml version="1.0" encoding="UTF-8"?>
<svg xmlns="http://www.w3.org/2000/svg" xmlns:xlink="http://www.w3.org/1999/xlink" width="512pt" height="512pt" viewBox="0 0 512 512" version="1.1">
<g id="surface8117476">
<path style=" stroke:none;fill-rule:nonzero;fill:rgb(80%,80%,80%);fill-opacity:1;" d="M 256 527.359375 C 106.132812 527.359375 -15.359375 405.867188 -15.359375 256 C -15.359375 106.132812 106.132812 -15.359375 256 -15.359375 C 405.867188 -15.359375 527.359375 106.132812 527.359375 256 C 527.359375 405.867188 405.867188 527.359375 256 527.359375 Z M 256 527.359375 "/>
<path style=" stroke:none;fill-rule:nonzero;fill:rgb(97.647059%,86.666667%,56.078431%);fill-opacity:1;" d="M 115.640625 306.484375 L 215.0625 259.695312 L 256 271.394531 L 296.9375 259.695312 L 396.359375 306.484375 C 414.296875 313.5 425.601562 336.699219 425.601562 355.960938 L 425.601562 400.054688 C 425.601562 406.515625 420.367188 411.75 413.902344 411.75 L 98.097656 411.75 C 91.632812 411.75 86.398438 406.515625 86.398438 400.054688 L 86.398438 355.960938 C 86.398438 336.699219 97.703125 313.5 115.640625 306.484375 Z M 115.640625 306.484375 "/>
<path style=" stroke:none;fill-rule:nonzero;fill:rgb(93.72549%,78.431373%,55.686275%);fill-opacity:1;" d="M 256 329.875 C 286.175781 329.875 320.332031 312.332031 337.875 277.242188 L 296.9375 259.695312 L 256 271.394531 L 220.910156 259.695312 L 174.125 277.242188 C 191.234375 301.078125 225.824219 329.875 256 329.875 Z M 256 329.875 "/>
<path style=" stroke:none;fill-rule:nonzero;fill:rgb(55.294118%,42.352941%,62.352941%);fill-opacity:1;" d="M 413.902344 417.601562 L 98.097656 417.601562 C 88.421875 417.601562 80.550781 409.726562 80.550781 400.054688 L 80.550781 355.1875 C 80.550781 330.453125 94.992188 307.636719 117.34375 297.050781 L 214.214844 253.667969 L 256 259.636719 L 297.785156 253.667969 L 394.539062 296.996094 C 417.007812 307.636719 431.449219 330.460938 431.449219 355.1875 L 431.449219 400.054688 C 431.449219 409.726562 423.578125 417.601562 413.902344 417.601562 Z M 122.296875 307.648438 C 104.039062 316.320312 92.25 334.976562 92.25 355.1875 L 92.25 400.054688 C 92.25 403.277344 94.875 405.902344 98.097656 405.902344 L 413.902344 405.902344 C 417.125 405.902344 419.75 403.277344 419.75 400.054688 L 419.75 355.1875 C 419.75 334.953125 407.933594 316.285156 389.652344 307.625 L 296.089844 265.726562 L 256 271.453125 L 215.910156 265.726562 Z M 122.296875 307.648438 "/>
<path style=" stroke:none;fill-rule:nonzero;fill:rgb(98.039216%,93.72549%,87.058824%);fill-opacity:1;" d="M 331.566406 181.398438 C 330.253906 167.691406 326.535156 153.117188 328.308594 146.613281 C 329.414062 142.554688 326.179688 142.730469 343.722656 148.578125 C 320.332031 90.097656 290.148438 84.25 256 84.25 C 236.167969 84.25 221.425781 87.664062 209.214844 95.945312 C 182.535156 95.945312 179.058594 138.082031 178.65625 178.605469 C 172.3125 176.1875 168.277344 180.996094 168.277344 189.515625 C 168.277344 198.746094 174.1875 218.355469 185.820312 224.605469 C 194.761719 268.242188 226.757812 294.785156 256 294.785156 C 285.242188 294.785156 314.484375 265.542969 326.179688 224.605469 C 339.164062 219.085938 343.722656 199.125 343.722656 189.515625 C 343.722656 179.417969 339.664062 175.082031 331.566406 181.398438 Z M 331.566406 181.398438 "/>
<path style=" stroke:none;fill-rule:nonzero;fill:rgb(80.392157%,63.137255%,65.490196%);fill-opacity:1;" d="M 220.910156 131.035156 C 238.457031 142.730469 275.609375 148.578125 291.089844 148.578125 C 313.828125 148.578125 314.484375 148.578125 326.179688 148.578125 C 326.179688 148.578125 337.875 142.730469 343.722656 148.578125 C 326.179688 95.945312 285.582031 84.25 267.695312 84.25 L 244.304688 84.25 C 234.875 84.25 220.910156 90.097656 215.0625 95.945312 C 198.65625 90.703125 179.972656 110.519531 179.972656 136.882812 L 179.972656 171.972656 C 197.515625 166.125 215.0625 136.882812 220.910156 131.035156 Z M 220.910156 131.035156 "/>
<path style=" stroke:none;fill-rule:nonzero;fill:rgb(55.294118%,42.352941%,62.352941%);fill-opacity:1;" d="M 232.140625 142.027344 C 248.886719 150.160156 267.265625 154.398438 285.882812 154.425781 L 300.796875 154.425781 C 304.027344 154.425781 306.644531 151.808594 306.644531 148.578125 C 306.644531 145.351562 304.027344 142.730469 300.796875 142.730469 L 285.882812 142.730469 C 269.023438 142.707031 252.390625 138.867188 237.226562 131.503906 L 228.105469 127.058594 C 222.8125 124.472656 216.417969 126.226562 213.191406 131.152344 L 203.832031 145.363281 C 202.101562 148.089844 202.910156 151.703125 205.632812 153.433594 C 208.296875 155.125 211.820312 154.398438 213.601562 151.796875 L 222.957031 137.585938 Z M 232.140625 142.027344 "/>
<path style=" stroke:none;fill-rule:nonzero;fill:rgb(55.294118%,42.352941%,62.352941%);fill-opacity:1;" d="M 339.511719 172.675781 C 338.6875 172.464844 337.847656 172.347656 337 172.324219 C 335.992188 165.429688 334.191406 158.679688 331.617188 152.207031 L 331.617188 151.5625 C 334.390625 151.894531 337.105469 152.601562 339.6875 153.667969 C 342.671875 154.90625 346.09375 153.492188 347.332031 150.507812 C 347.792969 149.398438 347.898438 148.171875 347.640625 147 C 337.875 104.191406 306.0625 78.398438 261.847656 78.398438 L 256 78.398438 C 240.96875 78.464844 226.21875 82.5 213.25 90.097656 C 191.667969 90.914062 176.582031 106.238281 174.125 130.449219 C 173.042969 141.355469 173.300781 152.355469 174.882812 163.199219 C 175.199219 165.136719 175.375 167.089844 175.410156 169.046875 C 175.410156 170.140625 175.234375 171.230469 174.882812 172.324219 C 174.019531 172.347656 173.152344 172.464844 172.3125 172.675781 C 162.660156 175.246094 158.625 189.34375 162.953125 205.484375 C 166.113281 217.179688 172.660156 225.953125 179.796875 228.875 C 183.441406 239.742188 188.453125 250.09375 194.710938 259.695312 L 194.691406 259.707031 C 196.46875 263.3125 201.609375 269.523438 201.609375 269.523438 C 215.996094 287.710938 234.945312 300.632812 256 300.632812 C 276.960938 300.632812 295.832031 287.816406 310.195312 269.808594 C 312.347656 267.128906 317.289062 259.695312 317.289062 259.695312 C 323.484375 250.085938 328.4375 239.730469 332.027344 228.875 C 339.222656 226.1875 345.769531 217.179688 348.871094 205.484375 C 353.199219 189.398438 348.871094 175.304688 339.511719 172.675781 Z M 337.582031 202.675781 C 334.660156 213.496094 329.160156 218 327.464844 218 C 324.78125 217.894531 322.367188 219.628906 321.617188 222.210938 C 312.085938 255.367188 286.292969 288.9375 256 288.9375 C 225.707031 288.9375 199.914062 255.367188 190.03125 222.269531 C 189.3125 219.792969 187.054688 218.082031 184.476562 218.058594 L 184.359375 218.058594 C 182.664062 218.058594 177.105469 213.496094 174.242188 202.734375 C 171.375 191.972656 173.949219 184.664062 175.292969 184.3125 C 175.871094 184.410156 176.410156 184.652344 176.871094 185.015625 C 179.609375 186.726562 183.21875 185.902344 184.933594 183.167969 C 185.464844 182.3125 185.769531 181.339844 185.820312 180.335938 C 185.960938 177.316406 186.292969 174.304688 186.816406 171.328125 C 187.117188 168.125 186.960938 164.894531 186.347656 161.738281 C 184.949219 151.753906 184.773438 141.644531 185.820312 131.621094 C 187.632812 112.964844 198.628906 101.792969 215.0625 101.792969 C 216.324219 101.792969 217.558594 101.382812 218.570312 100.625 C 229.816406 93.679688 242.78125 90.039062 256 90.097656 L 261.847656 90.097656 C 297.347656 90.097656 322.960938 108.226562 333.488281 140.273438 C 329.554688 139.507812 325.476562 140.539062 322.378906 143.082031 C 319.007812 146.75 318.324219 152.148438 320.683594 156.53125 C 323.800781 164.101562 325.582031 172.160156 325.945312 180.335938 C 326.109375 183.5625 328.859375 186.042969 332.082031 185.878906 C 333.097656 185.828125 334.09375 185.511719 334.945312 184.957031 C 335.414062 184.605469 335.953125 184.363281 336.523438 184.253906 C 337.933594 184.722656 340.507812 191.855469 337.582031 202.675781 Z M 337.582031 202.675781 "/>
<path style=" stroke:none;fill-rule:nonzero;fill:rgb(55.294118%,42.352941%,62.352941%);fill-opacity:1;" d="M 109.792969 394.207031 C 106.566406 394.207031 103.945312 391.585938 103.945312 388.359375 L 103.945312 376.660156 C 103.945312 373.433594 106.566406 370.8125 109.792969 370.8125 C 113.019531 370.8125 115.640625 373.433594 115.640625 376.660156 L 115.640625 388.359375 C 115.640625 391.585938 113.019531 394.207031 109.792969 394.207031 Z M 285.242188 394.207031 C 282.011719 394.207031 279.394531 391.585938 279.394531 388.359375 L 279.394531 376.660156 C 279.394531 373.433594 282.011719 370.8125 285.242188 370.8125 C 288.46875 370.8125 291.089844 373.433594 291.089844 376.660156 L 291.089844 388.359375 C 291.089844 391.585938 288.46875 394.207031 285.242188 394.207031 Z M 314.484375 394.207031 C 311.253906 394.207031 308.632812 391.585938 308.632812 388.359375 L 308.632812 376.660156 C 308.632812 373.433594 311.253906 370.8125 314.484375 370.8125 C 317.710938 370.8125 320.332031 373.433594 320.332031 376.660156 L 320.332031 388.359375 C 320.332031 391.585938 317.710938 394.207031 314.484375 394.207031 Z M 372.964844 394.207031 C 369.738281 394.207031 367.117188 391.585938 367.117188 388.359375 L 367.117188 376.660156 C 367.117188 373.433594 369.738281 370.8125 372.964844 370.8125 C 376.195312 370.8125 378.8125 373.433594 378.8125 376.660156 L 378.8125 388.359375 C 378.8125 391.585938 376.195312 394.207031 372.964844 394.207031 Z M 402.207031 394.207031 C 398.980469 394.207031 396.359375 391.585938 396.359375 388.359375 L 396.359375 376.660156 C 396.359375 373.433594 398.980469 370.8125 402.207031 370.8125 C 405.433594 370.8125 408.054688 373.433594 408.054688 376.660156 L 408.054688 388.359375 C 408.054688 391.585938 405.433594 394.207031 402.207031 394.207031 Z M 343.722656 394.207031 C 340.496094 394.207031 337.875 391.585938 337.875 388.359375 L 337.875 376.660156 C 337.875 373.433594 340.496094 370.8125 343.722656 370.8125 C 346.953125 370.8125 349.574219 373.433594 349.574219 376.660156 L 349.574219 388.359375 C 349.574219 391.585938 346.953125 394.207031 343.722656 394.207031 Z M 139.035156 394.207031 C 135.804688 394.207031 133.1875 391.585938 133.1875 388.359375 L 133.1875 376.660156 C 133.1875 373.433594 135.804688 370.8125 139.035156 370.8125 C 142.261719 370.8125 144.882812 373.433594 144.882812 376.660156 L 144.882812 388.359375 C 144.882812 391.585938 142.261719 394.207031 139.035156 394.207031 Z M 168.277344 394.207031 C 165.046875 394.207031 162.425781 391.585938 162.425781 388.359375 L 162.425781 376.660156 C 162.425781 373.433594 165.046875 370.8125 168.277344 370.8125 C 171.503906 370.8125 174.125 373.433594 174.125 376.660156 L 174.125 388.359375 C 174.125 391.585938 171.503906 394.207031 168.277344 394.207031 Z M 197.515625 394.207031 C 194.289062 394.207031 191.667969 391.585938 191.667969 388.359375 L 191.667969 376.660156 C 191.667969 373.433594 194.289062 370.8125 197.515625 370.8125 C 200.746094 370.8125 203.367188 373.433594 203.367188 376.660156 L 203.367188 388.359375 C 203.367188 391.585938 200.746094 394.207031 197.515625 394.207031 Z M 226.757812 394.207031 C 223.53125 394.207031 220.910156 391.585938 220.910156 388.359375 L 220.910156 376.660156 C 220.910156 373.433594 223.53125 370.8125 226.757812 370.8125 C 229.988281 370.8125 232.605469 373.433594 232.605469 376.660156 L 232.605469 388.359375 C 232.605469 391.585938 229.988281 394.207031 226.757812 394.207031 Z M 256 394.207031 C 252.773438 394.207031 250.152344 391.585938 250.152344 388.359375 L 250.152344 376.660156 C 250.152344 373.433594 252.773438 370.8125 256 370.8125 C 259.226562 370.8125 261.847656 373.433594 261.847656 376.660156 L 261.847656 388.359375 C 261.847656 391.585938 259.226562 394.207031 256 394.207031 Z M 256 394.207031 "/>
</g>
</svg>
